# File created by Blade
# Date/Time:  Tue Apr 07 20:18:06 2015
#---------------------------------------------------------
:version 1.10
:name HOM
:units
  mass 1.0
  length 1.000000
  angle deg
:documentation
     Acclaim Skeleton File
:root
   axis xyz
   order TX TY TZ RX RY RZ
   position 0.000000 0.000000 0.000000
   orientation 0 0 0
:bonedata
   begin
      id 1
      name Spine_dum
      direction 0.000000 1.000000 0.000000
      length 4.885285
      axis 0.0 0.0 0.0 xyz
   end
   begin
      id 2
      name LeftUpLeg_dum
      direction 1.000000 0.000000 0.000000
      length 2.672193
      axis 0.0 0.0 0.0 xyz
   end
   begin
      id 3
      name RightUpLeg_dum
      direction -1.000000 0.000000 0.000000
      length 2.672193
      axis 0.0 0.0 0.0 xyz
   end
   begin
      id 4
      name Spine
      direction 0.000000 1.000000 0.000000
      length 0.000000
      axis 0.0 0.0 0.0 xyz
      dof rx ry rz
   end
   begin
      id 5
      name Spine_dum1
      direction 0.000000 1.000000 0.000000
      length 16.494159
      axis 0.0 0.0 0.0 xyz
   end
   begin
      id 6
      name Spine_dum2
      direction 0.000000 1.000000 0.000000
      length 10.663448
      axis 0.0 0.0 0.0 xyz
   end
   begin
      id 7
      name Spine_dum3
      direction 0.000000 1.000000 0.000000
      length 10.663448
      axis 0.0 0.0 0.0 xyz
   end
   begin
      id 8
      name Head
      direction 0.000000 1.000000 0.000000
      length 4.527550
      axis 0.0 0.0 0.0 xyz
      dof rx ry rz
   end
   begin
      id 9
      name LeftShoulder
      direction 1.000000 0.000000 0.000000
      length 7.531907
      axis 0.0 0.0 -90.0 xyz
      dof rx ry rz
   end
   begin
      id 10
      name LeftArm
      direction 1.000000 0.000000 0.000000
      length 10.229199
      axis 0.0 0.0 -90.0 xyz
      dof rx ry rz
   end
   begin
      id 11
      name LeftForeArm
      direction 1.000000 0.000000 0.000000
      length 8.673495
      axis 0.0 0.0 -90.0 xyz
      dof ry rz rx
   end
   begin
      id 12
      name LeftHand
      direction 0.000000 0.000000 0.000000
      length 0.000000
      axis 0.0 0.0 -90.0 xyz
      dof rx ry rz
   end
   begin
      id 13
      name LeftHand_dum1
      direction 0.000000 0.000000 0.000000
      length 0.000000
      axis 0.0 0.0 -90.0 xyz
   end
   begin
      id 14
      name LeftHand_dum2
      direction 1.000000 0.000000 0.000000
      length 3.937000
      axis 0.0 0.0 -90.0 xyz
   end
   begin
      id 15
      name LeftHandThumb1
      direction 0.000000 0.000000 1.000000
      length 3.937000
      axis 0.0 0.0 -90.0 xyz
      dof rx rz ry
   end
   begin
      id 16
      name RightShoulder
      direction -1.000000 0.000000 0.000000
      length 7.531907
      axis 0.0 0.0 90.0 xyz
      dof rx ry rz
   end
   begin
      id 17
      name RightArm
      direction -1.000000 0.000000 0.000000
      length 10.229199
      axis 0.0 0.0 90.0 xyz
      dof rx ry rz
   end
   begin
      id 18
      name RightForeArm
      direction -1.000000 0.000000 0.000000
      length 8.673495
      axis 0.0 0.0 90.0 xyz
      dof ry rz rx
   end
   begin
      id 19
      name RightHand
      direction 0.000000 0.000000 0.000000
      length 0.000000
      axis 0.0 0.0 90.0 xyz
      dof rx ry rz
   end
   begin
      id 20
      name RightHand_dum1
      direction 0.000000 0.000000 0.000000
      length 0.000000
      axis 0.0 0.0 90.0 xyz
   end
   begin
      id 21
      name RightHand_dum2
      direction -1.000000 0.000000 0.000000
      length 3.937000
      axis 0.0 0.0 90.0 xyz
   end
   begin
      id 22
      name RightHandThumb1
      direction 0.000000 0.000000 1.000000
      length 3.937000
      axis 0.0 0.0 90.0 xyz
      dof rx rz ry
   end
   begin
      id 23
      name LeftUpLeg
      direction 0.000000 -1.000000 0.000000
      length 16.263388
      axis 0.0 0.0 0.0 xyz
      dof rx ry rz
   end
   begin
      id 24
      name LeftLeg
      direction 0.000000 -1.000000 0.000000
      length 14.328163
      axis 0.0 0.0 0.0 xyz
      dof rx ry rz
   end
   begin
      id 25
      name LeftFoot
      direction 0.000000 -0.258819 0.965926
      length 5.031290
      axis 15.0 0.0 0.0 xyz
      dof rx ry rz
   end
   begin
      id 26
      name LeftToeBase
      direction 0.000000 0.000000 1.000000
      length 2.952750
      axis 0.0 0.0 0.0 xyz
      dof rx ry rz
   end
   begin
      id 27
      name RightUpLeg
      direction 0.000000 -1.000000 0.000000
      length 16.263388
      axis 0.0 0.0 0.0 xyz
      dof rx ry rz
   end
   begin
      id 28
      name RightLeg
      direction 0.000000 -1.000000 0.000000
      length 14.328163
      axis 0.0 0.0 0.0 xyz
      dof rx ry rz
   end
   begin
      id 29
      name RightFoot
      direction 0.000000 -0.258819 0.965926
      length 5.031290
      axis 15.0 0.0 0.0 xyz
      dof rx ry rz
   end
   begin
      id 30
      name RightToeBase
      direction 0.000000 0.000000 1.000000
      length 2.952750
      axis 0.0 0.0 0.0 xyz
      dof rx ry rz
   end
:hierarchy
   begin
      root Spine_dum LeftUpLeg_dum RightUpLeg_dum
      Spine_dum Spine
      LeftUpLeg_dum LeftUpLeg
      RightUpLeg_dum RightUpLeg
      Spine Spine_dum1 Spine_dum2 Spine_dum3
      Spine_dum1 Head
      Spine_dum2 LeftShoulder
      Spine_dum3 RightShoulder
      LeftShoulder LeftArm
      LeftArm LeftForeArm
      LeftForeArm LeftHand
      LeftHand LeftHand_dum1 LeftHand_dum2
      LeftHand_dum1 LeftHandThumb1
      RightShoulder RightArm
      RightArm RightForeArm
      RightForeArm RightHand
      RightHand RightHand_dum1 RightHand_dum2
      RightHand_dum1 RightHandThumb1
      LeftUpLeg LeftLeg
      LeftLeg LeftFoot
      LeftFoot LeftToeBase
      RightUpLeg RightLeg
      RightLeg RightFoot
      RightFoot RightToeBase
   end

# File created by Blade
# Date/Time:  Tue Apr 07 20:17:56 2015
# Frame Rate: 120.000 fps
#------------------------------------------------------
:FULLY-SPECIFIED
:DEGREES
1
root 2.461588 32.767363 -7.109367 11.651661 2.701178 -0.471152
Spine -14.317175 -5.955126 -0.348338
Head 13.577105 -1.312763 0.882873
LeftShoulder -20.886729 40.575584 20.698793
LeftArm 55.704154 -56.916035 -58.109128
LeftForeArm 2.789280 -0.000000 -1.683311
LeftHand 6.411899 -0.000000 3.036029
LeftHandThumb1 -26.253704 0.000000 33.147579
RightShoulder -7.680858 4.090213 -31.198874
RightArm 12.518966 16.482212 39.252336
RightForeArm -8.729415 -0.000000 0.382613
RightHand 3.867671 -0.000000 3.706167
RightHandThumb1 -24.326973 -0.000000 -32.862282
LeftUpLeg -4.928311 -1.888656 0.587279
LeftLeg -3.321969 -0.000000 0.000000
LeftFoot -6.031388 6.566290 -16.937855
LeftToeBase -4.475789 -0.000000 0.000000
RightUpLeg -5.909496 -2.328560 1.125468
RightLeg -2.581515 -0.000000 0.000000
RightFoot -7.386234 -7.364466 5.260676
RightToeBase 2.363919 -0.000000 -0.000000
2
root 2.463573 32.767123 -7.112432 11.656367 2.749996 -0.474320
Spine -14.326234 -5.964315 -0.365767
Head 13.567562 -1.360602 0.922605
LeftShoulder -20.872786 40.620831 20.704446
LeftArm 55.836218 -56.903958 -58.241436
LeftForeArm 2.801192 -0.000000 -1.663862
LeftHand 6.434322 -0.000000 3.078166
LeftHandThumb1 -26.253704 0.000000 33.147579
RightShoulder -7.707566 4.084441 -31.176198
RightArm 12.506656 16.518786 39.273788
RightForeArm -8.694008 -0.000000 0.362684
RightHand 3.872058 -0.000000 3.660451
RightHandThumb1 -24.326973 -0.000000 -32.862282
LeftUpLeg -4.935612 -1.886650 0.588659
LeftLeg -3.337423 -0.000000 0.000000
LeftFoot -6.013327 6.536345 -16.950109
LeftToeBase -4.441129 -0.000000 0.000000
RightUpLeg -5.916069 -2.341537 1.129382
RightLeg -2.581517 -0.000000 0.000000
RightFoot -7.390320 -7.394279 5.280335
RightToeBase 2.379000 -0.000000 -0.000000
3
root 2.464886 32.766610 -7.116677 11.660908 2.792516 -0.477709
Spine -14.334612 -5.977851 -0.380930
Head 13.564849 -1.410936 0.946530
LeftShoulder -20.862954 40.622852 20.713289
LeftArm 55.922299 -56.877082 -58.326332
LeftForeArm 2.791832 -0.000000 -1.656163
LeftHand 6.454852 -0.000000 3.069439
LeftHandThumb1 -26.253704 0.000000 33.147579
RightShoulder -7.721448 4.102562 -31.157174
RightArm 12.475090 16.523601 39.284912
RightForeArm -8.656396 -0.000000 0.348376
RightHand 3.879649 -0.000000 3.645333
RightHandThumb1 -24.326973 -0.000000 -32.862282
LeftUpLeg -4.949990 -1.863405 0.589568
LeftLeg -3.338998 -0.000000 0.000000
LeftFoot -6.001905 6.486315 -16.926801
LeftToeBase -4.458047 -0.000000 0.000000
RightUpLeg -5.932634 -2.363932 1.135691
RightLeg -2.564604 -0.000000 0.000000
RightFoot -7.401833 -7.406075 5.268298
RightToeBase 2.361201 -0.000000 -0.000000
4
root 2.465899 32.766360 -7.120225 11.664990 2.832884 -0.483267
Spine -14.344105 -5.988876 -0.388881
Head 13.557834 -1.466320 0.960269
LeftShoulder -20.873166 40.655745 20.673555
LeftArm 56.087079 -56.888705 -58.443568
LeftForeArm 2.798943 -0.000000 -1.680954
LeftHand 6.455752 -0.000000 3.014437
LeftHandThumb1 -26.253704 0.000000 33.147579
RightShoulder -7.742227 4.092643 -31.152984
RightArm 12.477326 16.562803 39.323904
RightForeArm -8.639829 -0.000000 0.321236
RightHand 3.732734 -0.000000 3.623722
RightHandThumb1 -24.326973 -0.000000 -32.862282
LeftUpLeg -4.951483 -1.875841 0.595877
LeftLeg -3.367291 -0.000000 0.000000
LeftFoot -5.982477 6.485876 -16.913765
LeftToeBase -4.456136 -0.000000 0.000000
RightUpLeg -5.943327 -2.356252 1.142177
RightLeg -2.557637 -0.000000 0.000000
RightFoot -7.411481 -7.454902 5.255041
RightToeBase 2.381768 -0.000000 -0.000000
5
root 2.466600 32.766513 -7.124815 11.678681 2.878336 -0.492098
Spine -14.360827 -6.009489 -0.393975
Head 13.554860 -1.489029 0.986388
LeftShoulder -20.866436 40.668352 20.668527
LeftArm 56.101368 -56.834477 -58.424737
LeftForeArm 2.765045 -0.000000 -1.718958
LeftHand 6.470502 -0.000000 2.996495
LeftHandThumb1 -26.253704 0.000000 33.147579
RightShoulder -7.749572 4.094007 -31.130687
RightArm 12.454121 16.563148 39.324186
RightForeArm -8.652636 0.000000 0.309297
RightHand 3.702105 0.000000 3.696568
RightHandThumb1 -24.326973 -0.000000 -32.862282
LeftUpLeg -4.973202 -1.894800 0.609486
LeftLeg -3.374871 -0.000000 0.000000
LeftFoot -5.987413 6.472587 -16.924871
LeftToeBase -4.359601 -0.000000 0.000000
RightUpLeg -5.972581 -2.383245 1.158529
RightLeg -2.536792 -0.000000 0.000000
RightFoot -7.423347 -7.469622 5.270455
RightToeBase 2.385228 -0.000000 -0.000000
6
root 2.467082 32.766567 -7.128011 11.678654 2.917189 -0.500358
Spine -14.365360 -6.006378 -0.406267
Head 13.553671 -1.543629 1.002606
LeftShoulder -20.822618 40.640964 20.707265
LeftArm 56.059751 -56.779240 -58.414894
LeftForeArm 2.775428 -0.000000 -1.693448
LeftHand 6.515793 -0.000000 2.979669
LeftHandThumb1 -26.253704 0.000000 33.147579
RightShoulder -7.773721 4.083195 -31.120554
RightArm 12.430391 16.564616 39.337036
RightForeArm -8.645712 0.000000 0.302945
RightHand 3.655241 -0.000000 3.809580
RightHandThumb1 -24.326973 -0.000000 -32.862282
LeftUpLeg -4.982489 -1.880781 0.616111
LeftLeg -3.376139 -0.000000 0.000000
LeftFoot -5.977351 6.441478 -16.910662
LeftToeBase -4.377290 -0.000000 0.000000
RightUpLeg -5.984140 -2.398691 1.170868
RightLeg -2.522423 -0.000000 0.000000
RightFoot -7.425389 -7.482110 5.261811
RightToeBase 2.404453 -0.000000 -0.000000
7
root 2.468573 32.766803 -7.131776 11.676002 2.953315 -0.501254
Spine -14.362199 -6.025252 -0.413408
Head 13.541216 -1.558604 1.001722
LeftShoulder -20.819923 40.635327 20.679477
LeftArm 56.025993 -56.719928 -58.310588
LeftForeArm 2.726984 -0.000000 -1.784600
LeftHand 6.508138 -0.000000 2.988517
LeftHandThumb1 -26.253704 0.000000 33.147579
RightShoulder -7.777643 4.094849 -31.109899
RightArm 12.401907 16.563988 39.337452
RightForeArm -8.693348 -0.000000 0.297402
RightHand 3.715836 -0.000000 3.861906
RightHandThumb1 -24.326973 -0.000000 -32.862282
LeftUpLeg -4.987816 -1.863526 0.615266
LeftLeg -3.381993 -0.000000 0.000000
LeftFoot -5.953107 6.401076 -16.898036
LeftToeBase -4.383886 -0.000000 0.000000
RightUpLeg -5.992511 -2.398982 1.172320
RightLeg -2.507944 -0.000000 0.000000
RightFoot -7.430444 -7.523050 5.265450
RightToeBase 2.372393 -0.000000 -0.000000
8
root 2.469015 32.767225 -7.135004 11.672047 2.992850 -0.505815
Spine -14.358826 -6.049586 -0.420904
Head 13.529439 -1.569517 1.007845
LeftShoulder -20.820000 40.636832 20.667266
LeftArm 56.040356 -56.694212 -58.326813
LeftForeArm 2.758734 -0.000000 -1.780804
LeftHand 6.418509 0.000000 2.916110
LeftHandThumb1 -26.253704 0.000000 33.147579
RightShoulder -7.776850 4.065232 -31.091310
RightArm 12.400039 16.599061 39.343790
RightForeArm -8.724137 0.000000 0.284349
RightHand 3.703212 -0.000000 3.950640
RightHandThumb1 -24.326973 -0.000000 -32.862282
LeftUpLeg -4.994354 -1.879657 0.622937
LeftLeg -3.379984 -0.000000 0.000000
LeftFoot -5.943243 6.391355 -16.893768
LeftToeBase -4.421234 -0.000000 0.000000
RightUpLeg -5.999616 -2.414762 1.180146
RightLeg -2.490619 -0.000000 0.000000
RightFoot -7.432857 -7.535536 5.278185
RightToeBase 2.378659 -0.000000 -0.000000
9
root 2.469789 32.767492 -7.137821 11.665121 3.026619 -0.510863
Spine -14.350724 -6.049017 -0.433860
Head 13.512798 -1.629960 1.018588
LeftShoulder -20.777344 40.601934 20.690697
LeftArm 56.076500 -56.697106 -58.401426
LeftForeArm 2.836393 -0.000000 -1.791397
LeftHand 6.447204 0.000000 2.924065
LeftHandThumb1 -26.253704 0.000000 33.147579
RightShoulder -7.803234 4.082329 -31.084779
RightArm 12.369698 16.568321 39.342066
RightForeArm -8.722233 -0.000000 0.268708
RightHand 3.678782 -0.000000 4.011392
RightHandThumb1 -24.326973 -0.000000 -32.862282
LeftUpLeg -5.000575 -1.875071 0.628051
LeftLeg -3.369604 -0.000000 0.000000
LeftFoot -5.944506 6.362781 -16.912770
LeftToeBase -4.392653 -0.000000 0.000000
RightUpLeg -6.001304 -2.435700 1.188843
RightLeg -2.478515 -0.000000 0.000000
RightFoot -7.441596 -7.545614 5.280902
RightToeBase 2.379515 -0.000000 -0.000000
10
root 2.469461 32.767583 -7.140882 11.662429 3.055364 -0.521326
Spine -14.346751 -6.076235 -0.435218
Head 13.488988 -1.611537 1.019611
LeftShoulder -20.787835 40.609737 20.677300
LeftArm 56.135997 -56.697730 -58.488675
LeftForeArm 2.954964 -0.000000 -1.796478
LeftHand 6.367515 -0.000000 2.881400
LeftHandThumb1 -26.253704 0.000000 33.147579
RightShoulder -7.798164 4.067615 -31.074776
RightArm 12.365701 16.591269 39.353980
RightForeArm -8.715945 -0.000000 0.254387
RightHand 3.664079 0.000000 4.040136
RightHandThumb1 -24.326973 -0.000000 -32.862282
LeftUpLeg -5.011482 -1.874461 0.640737
LeftLeg -3.359844 -0.000000 0.000000
LeftFoot -5.945699 6.338906 -16.880453
LeftToeBase -4.334821 -0.000000 0.000000
RightUpLeg -6.006351 -2.420863 1.199999
RightLeg -2.469789 -0.000000 0.000000
RightFoot -7.444999 -7.580109 5.308185
RightToeBase 2.388663 -0.000000 -0.000000
